# xmcd
#
# Track frame offsets:
#	150
#	11226
#	25288
#	35144
#	47447
#	60502
#	72026
#	86270
#	99692
#	112413
#	125995
#	139988
#	154700
#	167502
#	180050
#	191404
#	206709
#	219951
#	232324
#	246675
#	259452
#	274237
#
# Disc length: 3850 seconds
#
# Revision: 1
# Processed by: cddbd v1.5.2PL0 Copyright (c) Steve Scherf et al.
# Submitted via: audiograbber 1.83.01
#
DISCID=4e0f0816
DTITLE=B.B. King - The Chronological B.B. King 1952-1953
DYEAR=2005
DGENRE=Blues
TTITLE0=Gotta Find My Baby
TTITLE1=Low Down Dirty Baby
TTITLE2=I'm So Glad
TTITLE3=I Got A Gal
TTITLE4=Some Day Some Where
TTITLE5=You Didn't Want Me
TTITLE6=You Know I Love You
TTITLE7=Story from My Heart and Soul
TTITLE8=Boogie Woogie Woman
TTITLE9=Woke Up This Morning
TTITLE10=Blind Love
TTITLE11=Don't Have to Cry
TTITLE12=Please Love Me
TTITLE13=Highway Bound
TTITLE14=Bye! Bye! Baby
TTITLE15=Can't We Talk It Over
TTITLE16=Neighborhood Affair
TTITLE17=Please Hurry Home
TTITLE18=Why Did You Leave Me
TTITLE19=Praying to the Lord
TTITLE20=Please Help Me
TTITLE21=Please Remember Me
EXTD=
EXTT0=
EXTT1=
EXTT2=
EXTT3=
EXTT4=
EXTT5=
EXTT6=
EXTT7=
EXTT8=
EXTT9=
EXTT10=
EXTT11=
EXTT12=
EXTT13=
EXTT14=
EXTT15=
EXTT16=
EXTT17=
EXTT18=
EXTT19=
EXTT20=
EXTT21=
PLAYORDER=
